<svg width="24" height="26" viewBox="0 0 24 26" fill="none" xmlns="http://www.w3.org/2000/svg">
<path d="M6.40005 14.6C6.18788 14.6 5.98439 14.6843 5.83436 14.8343C5.68433 14.9844 5.60005 15.1878 5.60005 15.4V18.6C5.60005 18.8122 5.68433 19.0157 5.83436 19.1657C5.98439 19.3157 6.18788 19.4 6.40005 19.4C6.61222 19.4 6.81571 19.3157 6.96573 19.1657C7.11576 19.0157 7.20005 18.8122 7.20005 18.6V18.3344H7.73445C8.22966 18.3344 8.70459 18.1377 9.05476 17.7875C9.40493 17.4374 9.60165 16.9624 9.60165 16.4672C9.60165 15.972 9.40493 15.4971 9.05476 15.1469C8.70459 14.7967 8.22966 14.6 7.73445 14.6H6.40005ZM7.73445 16.7344H7.20005V16.2H7.73285C7.80372 16.2 7.87168 16.2282 7.92179 16.2783C7.9719 16.3284 8.00005 16.3963 8.00005 16.4672C8.00005 16.5381 7.9719 16.606 7.92179 16.6562C7.87168 16.7063 7.80532 16.7344 7.73445 16.7344ZM15.2 15.3984C15.2005 15.1865 15.2849 14.9834 15.4349 14.8338C15.5849 14.6841 15.7882 14.6 16 14.6H17.5984C17.8106 14.6 18.0141 14.6843 18.1641 14.8343C18.3142 14.9844 18.3984 15.1878 18.3984 15.4C18.3984 15.6122 18.3142 15.8157 18.1641 15.9657C18.0141 16.1157 17.8106 16.2 17.5984 16.2H16.8V16.736H17.6C17.8122 16.736 18.0157 16.8203 18.1657 16.9703C18.3158 17.1204 18.4 17.3238 18.4 17.536C18.4 17.7482 18.3158 17.9517 18.1657 18.1017C18.0157 18.2517 17.8122 18.336 17.6 18.336H16.8L16.8016 18.5984C16.8019 18.7035 16.7814 18.8075 16.7414 18.9047C16.7014 19.0018 16.6426 19.0901 16.5685 19.1646C16.4187 19.3149 16.2154 19.3996 16.0032 19.4C15.7911 19.4004 15.5874 19.3166 15.4371 19.1668C15.2868 19.0171 15.2021 18.8138 15.2016 18.6016L15.2 17.5344V15.3984ZM11.2 14.6C10.9879 14.6 10.7844 14.6843 10.6344 14.8343C10.4843 14.9844 10.4 15.1878 10.4 15.4V18.6C10.4 18.8122 10.4843 19.0157 10.6344 19.1657C10.7844 19.3157 10.9879 19.4 11.2 19.4H12.0032C12.6398 19.4 13.2502 19.1472 13.7003 18.6971C14.1504 18.247 14.4032 17.6365 14.4032 17C14.4032 16.3635 14.1504 15.753 13.7003 15.303C13.2502 14.8529 12.6398 14.6 12.0032 14.6H11.2ZM12 17.8V16.2H12.0032C12.2154 16.2 12.4189 16.2843 12.5689 16.4343C12.719 16.5844 12.8032 16.7878 12.8032 17C12.8032 17.2122 12.719 17.4157 12.5689 17.5657C12.4189 17.7157 12.2154 17.8 12.0032 17.8H12ZM2.40165 3.40001C2.40165 2.55132 2.73879 1.73739 3.33891 1.13727C3.93902 0.537154 4.75296 0.200012 5.60165 0.200012H12.9376C13.253 0.200079 13.5652 0.262289 13.8565 0.383085C14.1478 0.503881 14.4124 0.680896 14.6352 0.904012L20.8976 7.16641C21.3479 7.61607 21.6011 8.22611 21.6016 8.86241V11.5312C22.0689 11.6972 22.4733 12.0038 22.7593 12.4089C23.0452 12.814 23.1986 13.2978 23.1985 13.7936V20.1984C23.1986 20.6943 23.0452 21.178 22.7593 21.5831C22.4733 21.9883 22.0689 22.2949 21.6016 22.4608V22.6C21.6016 23.4487 21.2645 24.2626 20.6644 24.8628C20.0643 25.4629 19.2503 25.8 18.4016 25.8H5.60005C4.75136 25.8 3.93742 25.4629 3.33731 24.8628C2.73719 24.2626 2.40005 23.4487 2.40005 22.6V22.4608C1.93244 22.2955 1.52753 21.9893 1.24102 21.5845C0.954502 21.1797 0.80045 20.696 0.800049 20.2V13.7952C0.800119 13.299 0.954018 12.8149 1.24056 12.4098C1.52709 12.0046 1.93218 11.6982 2.40005 11.5328L2.40165 3.40001ZM20.0016 9.80001H14.4016C14.0863 9.80022 13.7741 9.7383 13.4827 9.61778C13.1914 9.49727 12.9266 9.32052 12.7036 9.09763C12.4805 8.87475 12.3036 8.61011 12.1829 8.31882C12.0622 8.02754 12 7.71532 12 7.40001V1.80001H5.60005C5.1757 1.80001 4.76874 1.96858 4.46868 2.26864C4.16862 2.5687 4.00005 2.97567 4.00005 3.40001V11.3936H20V9.80001H20.0016ZM4.00005 22.5984C3.99984 22.8087 4.04107 23.0169 4.12138 23.2112C4.2017 23.4055 4.31952 23.5821 4.46811 23.7308C4.61671 23.8796 4.79316 23.9976 4.98739 24.0781C5.18161 24.1586 5.3898 24.2 5.60005 24.2H18.4C18.6103 24.2 18.8185 24.1586 19.0127 24.0781C19.2069 23.9976 19.3834 23.8796 19.532 23.7308C19.6806 23.5821 19.7984 23.4055 19.8787 23.2112C19.959 23.0169 20.0003 22.8087 20 22.5984H4.00005ZM13.6 2.13121V7.40001C13.6 7.61219 13.6843 7.81567 13.8344 7.9657C13.9844 8.11573 14.1879 8.20001 14.4 8.20001H19.6672L13.6 2.13121ZM3.20325 12.9936C2.99108 12.9936 2.78759 13.0779 2.63756 13.2279C2.48753 13.378 2.40325 13.5814 2.40325 13.7936V20.1984C2.40325 20.4106 2.48753 20.6141 2.63756 20.7641C2.78759 20.9141 2.99108 20.9984 3.20325 20.9984H20.7984C21.0106 20.9984 21.2141 20.9141 21.3641 20.7641C21.5142 20.6141 21.5984 20.4106 21.5984 20.1984V13.7936C21.5984 13.5814 21.5142 13.378 21.3641 13.2279C21.2141 13.0779 21.0106 12.9936 20.7984 12.9936H3.20325Z" fill="#4E738A"/>
</svg>
