<svg width="104" height="104" viewBox="0 0 104 104" fill="none" xmlns="http://www.w3.org/2000/svg">
<rect x="0.5" y="0.5" width="103" height="103" rx="1.5" fill="#FAFAFA"/>
<rect x="0.5" y="0.5" width="103" height="103" rx="1.5" stroke="#D9D9D9" stroke-dasharray="2 2"/>
<path d="M52.4686 31.3757H51.5311C51.4478 31.3757 51.4061 31.4174 51.4061 31.5007V36.407H46.7502C46.6669 36.407 46.6252 36.4486 46.6252 36.532V37.4695C46.6252 37.5528 46.6669 37.5945 46.7502 37.5945H51.4061V42.5007C51.4061 42.5841 51.4478 42.6257 51.5311 42.6257H52.4686C52.552 42.6257 52.5936 42.5841 52.5936 42.5007V37.5945H57.2502C57.3336 37.5945 57.3752 37.5528 57.3752 37.4695V36.532C57.3752 36.4486 57.3336 36.407 57.2502 36.407H52.5936V31.5007C52.5936 31.4174 52.552 31.3757 52.4686 31.3757Z" fill="#161616" fill-opacity="0.85"/>
<path d="M29.0176 58.9287L25.7227 68H24.376L28.1699 58.0469H29.0381L29.0176 58.9287ZM31.7793 68L28.4775 58.9287L28.457 58.0469H29.3252L33.1328 68H31.7793ZM31.6084 64.3154V65.3955H26.0166V64.3154H31.6084ZM38.9365 66.5645V57.5H40.208V68H39.0459L38.9365 66.5645ZM33.96 64.3838V64.2402C33.96 63.6751 34.0283 63.1624 34.165 62.7021C34.3063 62.2373 34.5046 61.8385 34.7598 61.5059C35.0195 61.1732 35.3271 60.918 35.6826 60.7402C36.0426 60.5579 36.4437 60.4668 36.8857 60.4668C37.3506 60.4668 37.7562 60.5488 38.1025 60.7129C38.4535 60.8724 38.7497 61.1071 38.9912 61.417C39.2373 61.7223 39.431 62.0915 39.5723 62.5244C39.7135 62.9574 39.8115 63.4473 39.8662 63.9941V64.623C39.8161 65.1654 39.7181 65.653 39.5723 66.0859C39.431 66.5189 39.2373 66.888 38.9912 67.1934C38.7497 67.4987 38.4535 67.7334 38.1025 67.8975C37.7516 68.057 37.3415 68.1367 36.8721 68.1367C36.4391 68.1367 36.0426 68.0433 35.6826 67.8564C35.3271 67.6696 35.0195 67.4076 34.7598 67.0703C34.5046 66.7331 34.3063 66.3366 34.165 65.8809C34.0283 65.4206 33.96 64.9215 33.96 64.3838ZM35.2314 64.2402V64.3838C35.2314 64.7529 35.2679 65.0993 35.3408 65.4229C35.4183 65.7464 35.5368 66.0312 35.6963 66.2773C35.8558 66.5234 36.0586 66.7171 36.3047 66.8584C36.5508 66.9951 36.8447 67.0635 37.1865 67.0635C37.6058 67.0635 37.9499 66.9746 38.2188 66.7969C38.4922 66.6191 38.7109 66.3844 38.875 66.0928C39.0391 65.8011 39.1667 65.4844 39.2578 65.1426V63.4951C39.2031 63.2445 39.1234 63.0029 39.0186 62.7705C38.9183 62.5335 38.7861 62.3239 38.6221 62.1416C38.4626 61.9548 38.2643 61.8066 38.0273 61.6973C37.7949 61.5879 37.5192 61.5332 37.2002 61.5332C36.8538 61.5332 36.5553 61.6061 36.3047 61.752C36.0586 61.8932 35.8558 62.0892 35.6963 62.3398C35.5368 62.5859 35.4183 62.873 35.3408 63.2012C35.2679 63.5247 35.2314 63.8711 35.2314 64.2402ZM46.8389 66.5645V57.5H48.1104V68H46.9482L46.8389 66.5645ZM41.8623 64.3838V64.2402C41.8623 63.6751 41.9307 63.1624 42.0674 62.7021C42.2087 62.2373 42.4069 61.8385 42.6621 61.5059C42.9219 61.1732 43.2295 60.918 43.585 60.7402C43.945 60.5579 44.346 60.4668 44.7881 60.4668C45.2529 60.4668 45.6585 60.5488 46.0049 60.7129C46.3558 60.8724 46.652 61.1071 46.8936 61.417C47.1396 61.7223 47.3333 62.0915 47.4746 62.5244C47.6159 62.9574 47.7139 63.4473 47.7686 63.9941V64.623C47.7184 65.1654 47.6204 65.653 47.4746 66.0859C47.3333 66.5189 47.1396 66.888 46.8936 67.1934C46.652 67.4987 46.3558 67.7334 46.0049 67.8975C45.654 68.057 45.2438 68.1367 44.7744 68.1367C44.3415 68.1367 43.945 68.0433 43.585 67.8564C43.2295 67.6696 42.9219 67.4076 42.6621 67.0703C42.4069 66.7331 42.2087 66.3366 42.0674 65.8809C41.9307 65.4206 41.8623 64.9215 41.8623 64.3838ZM43.1338 64.2402V64.3838C43.1338 64.7529 43.1702 65.0993 43.2432 65.4229C43.3206 65.7464 43.4391 66.0312 43.5986 66.2773C43.7581 66.5234 43.9609 66.7171 44.207 66.8584C44.4531 66.9951 44.7471 67.0635 45.0889 67.0635C45.5081 67.0635 45.8522 66.9746 46.1211 66.7969C46.3945 66.6191 46.6133 66.3844 46.7773 66.0928C46.9414 65.8011 47.069 65.4844 47.1602 65.1426V63.4951C47.1055 63.2445 47.0257 63.0029 46.9209 62.7705C46.8206 62.5335 46.6885 62.3239 46.5244 62.1416C46.3649 61.9548 46.1667 61.8066 45.9297 61.6973C45.6973 61.5879 45.4215 61.5332 45.1025 61.5332C44.7562 61.5332 44.4577 61.6061 44.207 61.752C43.9609 61.8932 43.7581 62.0892 43.5986 62.3398C43.4391 62.5859 43.3206 62.873 43.2432 63.2012C43.1702 63.5247 43.1338 63.8711 43.1338 64.2402ZM54.9258 57.5V68H53.6543V57.5H54.9258ZM56.6211 64.3838V64.2266C56.6211 63.6934 56.6986 63.1989 56.8535 62.7432C57.0085 62.2829 57.2318 61.8841 57.5234 61.5469C57.8151 61.2051 58.1683 60.9408 58.583 60.7539C58.9977 60.5625 59.4626 60.4668 59.9775 60.4668C60.4971 60.4668 60.9642 60.5625 61.3789 60.7539C61.7982 60.9408 62.1536 61.2051 62.4453 61.5469C62.7415 61.8841 62.9671 62.2829 63.1221 62.7432C63.277 63.1989 63.3545 63.6934 63.3545 64.2266V64.3838C63.3545 64.917 63.277 65.4115 63.1221 65.8672C62.9671 66.3229 62.7415 66.7217 62.4453 67.0635C62.1536 67.4007 61.8005 67.665 61.3857 67.8564C60.9756 68.0433 60.5107 68.1367 59.9912 68.1367C59.4717 68.1367 59.0046 68.0433 58.5898 67.8564C58.1751 67.665 57.8197 67.4007 57.5234 67.0635C57.2318 66.7217 57.0085 66.3229 56.8535 65.8672C56.6986 65.4115 56.6211 64.917 56.6211 64.3838ZM57.8857 64.2266V64.3838C57.8857 64.7529 57.929 65.1016 58.0156 65.4297C58.1022 65.7533 58.2321 66.0404 58.4053 66.291C58.583 66.5417 58.804 66.7399 59.0684 66.8857C59.3327 67.027 59.6403 67.0977 59.9912 67.0977C60.3376 67.0977 60.6406 67.027 60.9004 66.8857C61.1647 66.7399 61.3835 66.5417 61.5566 66.291C61.7298 66.0404 61.8597 65.7533 61.9463 65.4297C62.0374 65.1016 62.083 64.7529 62.083 64.3838V64.2266C62.083 63.862 62.0374 63.5179 61.9463 63.1943C61.8597 62.8662 61.7275 62.5768 61.5498 62.3262C61.3766 62.071 61.1579 61.8704 60.8936 61.7246C60.6338 61.5788 60.3285 61.5059 59.9775 61.5059C59.6312 61.5059 59.3258 61.5788 59.0615 61.7246C58.8018 61.8704 58.583 62.071 58.4053 62.3262C58.2321 62.5768 58.1022 62.8662 58.0156 63.1943C57.929 63.5179 57.8857 63.862 57.8857 64.2266ZM69.7324 60.6035H70.8809V67.8428C70.8809 68.4945 70.7487 69.0505 70.4844 69.5107C70.2201 69.971 69.8509 70.3197 69.377 70.5566C68.9076 70.7982 68.3652 70.9189 67.75 70.9189C67.4948 70.9189 67.194 70.8779 66.8477 70.7959C66.5059 70.7184 66.1686 70.584 65.8359 70.3926C65.5078 70.2057 65.2321 69.9528 65.0088 69.6338L65.6719 68.8818C65.9818 69.2555 66.3053 69.5153 66.6426 69.6611C66.9844 69.807 67.3216 69.8799 67.6543 69.8799C68.0553 69.8799 68.4017 69.8047 68.6934 69.6543C68.985 69.5039 69.2106 69.2806 69.3701 68.9844C69.5342 68.6927 69.6162 68.3327 69.6162 67.9043V62.2305L69.7324 60.6035ZM64.6396 64.3838V64.2402C64.6396 63.6751 64.7057 63.1624 64.8379 62.7021C64.9746 62.2373 65.1683 61.8385 65.4189 61.5059C65.6742 61.1732 65.9818 60.918 66.3418 60.7402C66.7018 60.5579 67.1074 60.4668 67.5586 60.4668C68.0234 60.4668 68.429 60.5488 68.7754 60.7129C69.1263 60.8724 69.4225 61.1071 69.6641 61.417C69.9102 61.7223 70.1038 62.0915 70.2451 62.5244C70.3864 62.9574 70.4844 63.4473 70.5391 63.9941V64.623C70.4889 65.1654 70.391 65.653 70.2451 66.0859C70.1038 66.5189 69.9102 66.888 69.6641 67.1934C69.4225 67.4987 69.1263 67.7334 68.7754 67.8975C68.4245 68.057 68.0143 68.1367 67.5449 68.1367C67.1029 68.1367 66.7018 68.0433 66.3418 67.8564C65.9863 67.6696 65.681 67.4076 65.4258 67.0703C65.1706 66.7331 64.9746 66.3366 64.8379 65.8809C64.7057 65.4206 64.6396 64.9215 64.6396 64.3838ZM65.9043 64.2402V64.3838C65.9043 64.7529 65.9408 65.0993 66.0137 65.4229C66.0911 65.7464 66.2074 66.0312 66.3623 66.2773C66.5218 66.5234 66.7246 66.7171 66.9707 66.8584C67.2168 66.9951 67.5107 67.0635 67.8525 67.0635C68.2718 67.0635 68.6182 66.9746 68.8916 66.7969C69.165 66.6191 69.3815 66.3844 69.541 66.0928C69.7051 65.8011 69.8327 65.4844 69.9238 65.1426V63.4951C69.8737 63.2445 69.7962 63.0029 69.6914 62.7705C69.5911 62.5335 69.459 62.3239 69.2949 62.1416C69.1354 61.9548 68.9372 61.8066 68.7002 61.6973C68.4632 61.5879 68.1852 61.5332 67.8662 61.5332C67.5199 61.5332 67.2214 61.6061 66.9707 61.752C66.7246 61.8932 66.5218 62.0892 66.3623 62.3398C66.2074 62.5859 66.0911 62.873 66.0137 63.2012C65.9408 63.5247 65.9043 63.8711 65.9043 64.2402ZM72.4668 64.3838V64.2266C72.4668 63.6934 72.5443 63.1989 72.6992 62.7432C72.8542 62.2829 73.0775 61.8841 73.3691 61.5469C73.6608 61.2051 74.014 60.9408 74.4287 60.7539C74.8434 60.5625 75.3083 60.4668 75.8232 60.4668C76.3428 60.4668 76.8099 60.5625 77.2246 60.7539C77.6439 60.9408 77.9993 61.2051 78.291 61.5469C78.5872 61.8841 78.8128 62.2829 78.9678 62.7432C79.1227 63.1989 79.2002 63.6934 79.2002 64.2266V64.3838C79.2002 64.917 79.1227 65.4115 78.9678 65.8672C78.8128 66.3229 78.5872 66.7217 78.291 67.0635C77.9993 67.4007 77.6462 67.665 77.2314 67.8564C76.8213 68.0433 76.3564 68.1367 75.8369 68.1367C75.3174 68.1367 74.8503 68.0433 74.4355 67.8564C74.0208 67.665 73.6654 67.4007 73.3691 67.0635C73.0775 66.7217 72.8542 66.3229 72.6992 65.8672C72.5443 65.4115 72.4668 64.917 72.4668 64.3838ZM73.7314 64.2266V64.3838C73.7314 64.7529 73.7747 65.1016 73.8613 65.4297C73.9479 65.7533 74.0778 66.0404 74.251 66.291C74.4287 66.5417 74.6497 66.7399 74.9141 66.8857C75.1784 67.027 75.486 67.0977 75.8369 67.0977C76.1833 67.0977 76.4863 67.027 76.7461 66.8857C77.0104 66.7399 77.2292 66.5417 77.4023 66.291C77.5755 66.0404 77.7054 65.7533 77.792 65.4297C77.8831 65.1016 77.9287 64.7529 77.9287 64.3838V64.2266C77.9287 63.862 77.8831 63.5179 77.792 63.1943C77.7054 62.8662 77.5732 62.5768 77.3955 62.3262C77.2223 62.071 77.0036 61.8704 76.7393 61.7246C76.4795 61.5788 76.1742 61.5059 75.8232 61.5059C75.4769 61.5059 75.1715 61.5788 74.9072 61.7246C74.6475 61.8704 74.4287 62.071 74.251 62.3262C74.0778 62.5768 73.9479 62.8662 73.8613 63.1943C73.7747 63.5179 73.7314 63.862 73.7314 64.2266Z" fill="#161616" fill-opacity="0.45"/>
</svg>